<?xml version="1.0" encoding="iso-8859-1"?>
<!-- Generator: Adobe Illustrator 21.0.0, SVG Export Plug-In . SVG Version: 6.00 Build 0)  -->
<svg xmlns="http://www.w3.org/2000/svg" xmlns:xlink="http://www.w3.org/1999/xlink" version="1.1" id="Capa_1" x="0px" y="0px" viewBox="0 0 512 512" style="enable-background:new 0 0 512 512;" xml:space="preserve" width="512" height="512">
<g>
	<g>
		<path style="fill:#FFE477;" d="M466,512H46c-8.284,0-15-6.716-15-15V151c0-8.284,6.716-15,15-15h420c8.284,0,15,6.716,15,15v346    C481,505.284,474.284,512,466,512z"/>
	</g>
	<path style="fill:#FFD222;" d="M466,136H256.083v376H466c8.284,0,15-6.716,15-15V151C481,142.716,474.284,136,466,136z"/>
	<g>
		<path style="fill:#00ECCF;" d="M406,512H106c-8.284,0-15-6.716-15-15V256.5c0-8.284,6.716-15,15-15h300c8.284,0,15,6.716,15,15    V497C421,505.284,414.284,512,406,512z"/>
	</g>
	<path style="fill:#00CAB1;" d="M406,241.5H256.083V512H406c8.284,0,15-6.716,15-15V256.5C421,248.216,414.284,241.5,406,241.5z"/>
	<g>
		<path style="fill:#09607D;" d="M497,212.004H15c-8.284,0-15-6.716-15-15v-92.001c0-3.978,1.58-7.793,4.394-10.606L94.396,4.394    C97.209,1.581,101.024,0,105.003,0h301.994c3.979,0,7.794,1.581,10.606,4.394l90.003,90.002c2.813,2.813,4.394,6.628,4.394,10.606    v92.001C512,205.288,505.284,212.004,497,212.004z"/>
	</g>
	<g>
		<path style="fill:#07485E;" d="M0.55,101.031C0.197,102.315,0,103.647,0,105.002v92.001c0,1.379,0.202,2.709,0.55,3.977V101.031z"/>
		<path style="fill:#07485E;" d="M507.606,94.396L417.604,4.394C414.791,1.581,410.976,0,406.997,0H256.083v212.004H497    c8.284,0,15-6.716,15-15v-92.001C512,101.024,510.42,97.209,507.606,94.396z"/>
	</g>
	<rect x="91" y="271.75" style="fill:#00CAB1;" width="330" height="30"/>
	<path style="fill:#E1EBF0;" d="M344.977,121c0,0-13.996,0-14.001,0c-3.927,0-7.73-1.694-10.368-4.6   c-6.763-7.451-4.059-20.959,5.49-24.518c1.558-0.581,3.216-0.876,4.879-0.876h13.997c8.284,0,15-6.716,15-15s-6.716-15-15-15   h-13.997c-19.367,0-35.84,12.582-41.705,29.998h-66.542c-5.864-17.415-22.337-29.998-41.704-29.998h-13.997   c-8.284,0-15,6.716-15,15s6.716,15,15,15c0,0,13.992,0,13.997,0c3.939,0,7.753,1.705,10.392,4.627   c6.77,7.497,3.997,21.04-5.627,24.533c-1.525,0.553-3.143,0.835-4.765,0.835h-14.001c-8.284,0-15,6.716-15,15s6.716,15,15,15   h14.001c19.368,0,35.84-12.582,41.705-29.998h66.542C295.135,138.417,311.608,151,330.976,151h14.001c8.284,0,15-6.716,15-15   S353.261,121,344.977,121z"/>
	<rect x="91" y="331.958" style="fill:#00CAB1;" width="330" height="30"/>
	<rect x="90.969" y="392.239" style="fill:#00CAB1;" width="330" height="30"/>
	<rect x="90.99" y="452.364" style="fill:#00CAB1;" width="330" height="30"/>
	<path style="fill:#CDE1E6;" d="M344.977,121c0,0-13.996,0-14.001,0c-3.927,0-7.73-1.694-10.368-4.6   c-6.763-7.451-4.059-20.959,5.49-24.518c1.558-0.581,3.216-0.876,4.878-0.876h13.997c8.284,0,15-6.716,15-15s-6.716-15-15-15   h-13.997c-19.367,0-35.84,12.582-41.705,29.998h-33.188v30h33.188C295.135,138.417,311.608,151,330.976,151h14.001   c8.284,0,15-6.716,15-15S353.261,121,344.977,121z"/>
	<rect x="256.083" y="271.75" style="fill:#00A893;" width="164.917" height="30"/>
	<rect x="256.083" y="331.958" style="fill:#00A893;" width="164.917" height="30"/>
	<rect x="256.083" y="392.239" style="fill:#00A893;" width="164.885" height="30"/>
	<rect x="256.083" y="452.364" style="fill:#00A893;" width="164.906" height="30"/>
</g>















</svg>
